<?xml version="1.0" encoding="iso-8859-1"?>
<!-- Uploaded to: SVG Repo, www.svgrepo.com, Generator: SVG Repo Mixer Tools -->
<svg height="800px" width="800px" version="1.1" id="Layer_1" xmlns="http://www.w3.org/2000/svg" xmlns:xlink="http://www.w3.org/1999/xlink" 
	 viewBox="0 0 473.955 473.955" xml:space="preserve">
<path style="fill:#4077B5;" d="M159.378,264.403c-9.029-11.607-19.356-23.831-19.356-43.809c0-10.986,3.263-17.422,6.488-25.134
	c-7.151,0.629-14.215,1.287-20.662,1.287c-52.179,0-87.056-29.672-100.662-66.058C9.108,162.664,0,198.75,0,236.987
	c0,26.424,4.393,51.813,12.378,75.55c6.436-6.6,14.286-12.875,23.783-18.518C76.172,269.541,130.379,266.315,159.378,264.403z"/>
<path style="fill:#EDC92C;" d="M95.367,427.003c17.078,6.9,37.822,10.75,61.44,10.75c61.942,0,94.866-29.627,94.866-69.597
	c0-32.849-21.283-50.275-70.331-85.073c-5.179-0.629-8.412-0.629-14.87-0.629c-5.796,0-40.625,1.287-67.738,10.32
	c-14.178,5.16-55.472,20.587-55.472,66.364c0,6.11,0.819,11.977,2.357,17.583C59.618,395.848,76.377,412.832,95.367,427.003z"/>
<path style="fill:#F3C716;" d="M95.367,427.003c17.078,6.9,37.822,10.75,61.44,10.75c61.942,0,94.866-29.627,94.866-69.597
	c0-32.849-21.283-50.275-70.331-85.073c-5.179-0.629-8.412-0.629-14.87-0.629c-5.796,0-40.625,1.287-67.738,10.32
	c-14.178,5.16-55.472,20.587-55.472,66.364c0,6.11,0.819,11.977,2.357,17.583C59.618,395.848,76.377,412.832,95.367,427.003z"/>
<path style="fill:#4077B5;" d="M75.535,63.963c0,43.162,25.152,114.716,80.609,114.716c16.138,0,33.575-7.738,43.899-18.028
	c14.825-14.844,16.135-35.453,16.135-47.072c0-33.852-14.803-81.399-43.588-104.654c-36.748,10.357-69.87,29.321-97.047,54.63
	C75.543,63.69,75.535,63.825,75.535,63.963z"/>
<path style="fill:#ED2A26;" d="M236.971,0.001c-2.013,0-4,0.101-6.002,0.146c15.738,13.31,41.975,38.705,41.975,83.805
	c0,47.685-27.117,70.252-54.196,91.513c-8.367,8.367-18.043,17.414-18.043,31.577c0,14.193,9.676,21.908,16.744,27.719
	l23.233,18.035c28.378,23.839,54.192,45.792,54.192,90.218c0,53.246-45.321,106.94-131.535,119.217
	c23.184,7.57,47.917,11.723,73.631,11.723c130.884,0,236.982-106.106,236.982-236.975C473.953,106.096,367.855,0.001,236.971,0.001z
	"/>
<path style="opacity:0.1;enable-background:new    ;" d="M404.543,69.407c92.546,92.542,92.553,242.588,0,335.137
	c-92.542,92.542-242.595,92.549-335.141,0L404.543,69.407z"/>
<path style="fill:#118241;" d="M200.706,207.042c1.452,14.118,9.676,21.908,16.744,27.719l23.233,18.035
	c28.378,23.839,54.192,45.792,54.192,90.218c0,53.246-45.321,106.94-131.535,119.217c23.184,7.57,47.917,11.723,73.631,11.723
	c130.884,0,236.982-106.106,236.982-236.975c0-8.486-0.681-20.449-2.065-30.945c-1.594-12.108-3.921-22.222-3.921-22.222
	c-63.85-66.241-172.904-48.849-230.808-19.85C208.485,178.327,199.74,197.642,200.706,207.042z"/>
<g>
	<path style="fill:#FFFFFF;" d="M294.879,343.014c0-44.426-25.815-66.379-54.192-90.218l-23.233-18.035
		c-7.068-5.811-16.744-13.527-16.744-27.719c0-14.163,9.676-23.21,18.043-31.577c27.079-21.261,54.196-43.828,54.196-91.513
		c0-45.1-26.237-70.495-41.975-83.801c-20.191,0.505-39.745,3.521-58.379,8.778c28.786,23.255,43.588,70.802,43.588,104.654
		c0,11.618-1.306,32.228-16.135,47.072c-10.327,10.29-27.764,18.028-43.899,18.028c-55.457,0-80.609-71.554-80.609-114.716
		c0-0.138,0.011-0.269,0.011-0.408C55.027,82.676,37.916,105.385,25.19,130.69c13.609,36.389,48.486,66.058,100.662,66.058
		c6.451,0,13.515-0.659,20.662-1.287c-3.225,7.712-6.488,14.148-6.488,25.134c0,19.977,10.327,32.206,19.356,43.809
		c-28.999,1.916-83.206,5.137-123.221,29.613c-9.497,5.643-17.347,11.921-23.783,18.518c7.805,23.21,19.079,44.815,33.25,64.187
		c-1.542-5.605-2.357-11.472-2.357-17.583c0-45.777,41.298-61.204,55.472-66.364c27.113-9.033,61.942-10.32,67.738-10.32
		c6.458,0,9.687,0,14.87,0.629c49.047,34.802,70.331,52.224,70.331,85.073c0,39.97-32.924,69.597-94.866,69.597
		c-23.618,0-44.363-3.85-61.44-10.75c20.37,15.207,43.292,27.165,67.977,35.233C249.559,449.955,294.879,396.264,294.879,343.014z"
		/>
	<path style="fill:#FFFFFF;" d="M36.157,294.016c-9.497,5.643-17.347,11.921-23.783,18.518c7.805,23.21,19.079,44.815,33.25,64.187
		c-1.542-5.605-2.357-11.472-2.357-17.583c0-45.777,41.298-61.204,55.472-66.364c23.603-7.865,53.036-9.852,64.089-10.238
		l-17.179-17.175C115.303,267.662,70.518,272.994,36.157,294.016z"/>
	<path style="fill:#FFFFFF;" d="M249.981,19.185c-6.567-8.071-13.444-14.331-19.012-19.038c-14.788,0.374-29.227,2.103-43.218,5.059
		l38.103,38.106L249.981,19.185z"/>
	<path style="fill:#FFFFFF;" d="M41.444,103.158c-6.009,8.767-11.45,17.961-16.262,27.525c5.07,13.553,13.096,26.17,23.865,36.673
		l28.299-28.299L41.444,103.158z"/>
</g>
<g style="opacity:0.15;">
	<path d="M158.165,460.48c0.977,0.344,1.976,0.644,2.96,0.98c-0.969-0.344-1.946-0.681-2.915-1.021L158.165,460.48z"/>
	<path d="M163.34,462.235c0.03-0.007,0.06-0.015,0.09-0.015c-0.771-0.254-1.542-0.505-2.309-0.76
		C161.862,461.715,162.596,461.984,163.34,462.235z"/>
</g>
<g style="opacity:0.15;">
	<path d="M159.378,264.403c-9.029-11.607-19.356-23.831-19.356-43.809c0-10.986,3.263-17.422,6.488-25.134
		c-7.151,0.629-14.215,1.287-20.662,1.287c-32.741,0-58.66-11.693-76.796-29.388l98.121,97.964
		C152.164,264.942,155.28,264.673,159.378,264.403z"/>
	<path d="M156.145,178.679c16.138,0,33.575-7.738,43.899-18.028c14.825-14.844,16.135-35.453,16.135-47.072
		c0-33.852-14.803-81.399-43.588-104.654c-60.022,15.966-97.047,54.63-97.047,54.63c0,0.138-0.011,0.269-0.011,0.408
		C75.535,107.125,100.688,178.679,156.145,178.679z"/>
	<path d="M251.673,368.155c0-32.849-21.283-50.275-70.331-85.073c-5.179-0.629-8.412-0.629-14.87-0.629
		c-5.796,0-40.625,1.287-67.738,10.32c-14.178,5.16-55.472,20.587-55.472,66.364c0,6.11,0.819,11.977,2.357,17.583
		c13.994,19.124,30.754,36.108,49.743,50.282c17.078,6.9,37.822,10.75,61.44,10.75C218.749,437.753,251.673,408.125,251.673,368.155
		z"/>
	<path d="M249.993,19.17l-0.011,0.015c12,14.739,22.963,35.622,22.963,64.767c0,47.685-27.117,70.252-54.196,91.513
		c-8.367,8.367-18.043,17.414-18.043,31.577c0,14.193,9.676,21.908,16.744,27.719l23.233,18.035
		c28.378,23.839,54.192,45.792,54.192,90.218c0,53.227-45.291,106.895-131.445,119.202c23.158,7.562,47.854,11.738,73.537,11.738
		c128.871,0,233.637-102.884,236.829-230.981L249.993,19.17z"/>
</g>
</svg>